<mxfile host="app.diagrams.net" modified="2022-07-19T17:23:54.440Z" agent="5.0 (Windows NT 10.0; Win64; x64) AppleWebKit/537.36 (KHTML, like Gecko) Chrome/103.0.0.0 Safari/537.36" etag="feL8mDnuOu7iji_d-qhH" version="20.1.1" type="github">
  <diagram id="zLRTxnAfTKyDotzZSyuj" name="Page-1">
    <mxGraphModel dx="782" dy="460" grid="1" gridSize="10" guides="1" tooltips="1" connect="1" arrows="1" fold="1" page="1" pageScale="1" pageWidth="850" pageHeight="1100" math="0" shadow="0">
      <root>
        <mxCell id="0" />
        <mxCell id="1" parent="0" />
        <mxCell id="cWMiA6M3M2dQTU5-p3F2-63" value="" style="rounded=0;whiteSpace=wrap;html=1;" vertex="1" parent="1">
          <mxGeometry x="320" y="8" width="472" height="370" as="geometry" />
        </mxCell>
        <mxCell id="cWMiA6M3M2dQTU5-p3F2-1" value="" style="endArrow=classic;html=1;rounded=0;" edge="1" parent="1">
          <mxGeometry width="50" height="50" relative="1" as="geometry">
            <mxPoint x="380" y="350" as="sourcePoint" />
            <mxPoint x="380" y="10" as="targetPoint" />
          </mxGeometry>
        </mxCell>
        <mxCell id="cWMiA6M3M2dQTU5-p3F2-2" value="" style="endArrow=classic;html=1;rounded=0;startArrow=none;" edge="1" parent="1" source="cWMiA6M3M2dQTU5-p3F2-33">
          <mxGeometry width="50" height="50" relative="1" as="geometry">
            <mxPoint x="330" y="320" as="sourcePoint" />
            <mxPoint x="750" y="320" as="targetPoint" />
          </mxGeometry>
        </mxCell>
        <mxCell id="cWMiA6M3M2dQTU5-p3F2-11" value="" style="ellipse;whiteSpace=wrap;html=1;fillColor=#FF0080;" vertex="1" parent="1">
          <mxGeometry x="570" y="310" width="20" height="20" as="geometry" />
        </mxCell>
        <mxCell id="cWMiA6M3M2dQTU5-p3F2-14" value="" style="endArrow=none;html=1;rounded=0;startArrow=none;" edge="1" parent="1" source="cWMiA6M3M2dQTU5-p3F2-10" target="cWMiA6M3M2dQTU5-p3F2-11">
          <mxGeometry width="50" height="50" relative="1" as="geometry">
            <mxPoint x="330" y="320" as="sourcePoint" />
            <mxPoint x="750" y="320" as="targetPoint" />
          </mxGeometry>
        </mxCell>
        <mxCell id="cWMiA6M3M2dQTU5-p3F2-10" value="" style="ellipse;whiteSpace=wrap;html=1;fillColor=#FF0080;" vertex="1" parent="1">
          <mxGeometry x="560" y="310" width="20" height="20" as="geometry" />
        </mxCell>
        <mxCell id="cWMiA6M3M2dQTU5-p3F2-15" value="" style="endArrow=none;html=1;rounded=0;startArrow=none;" edge="1" parent="1" source="cWMiA6M3M2dQTU5-p3F2-9" target="cWMiA6M3M2dQTU5-p3F2-10">
          <mxGeometry width="50" height="50" relative="1" as="geometry">
            <mxPoint x="330" y="320" as="sourcePoint" />
            <mxPoint x="570" y="320" as="targetPoint" />
          </mxGeometry>
        </mxCell>
        <mxCell id="cWMiA6M3M2dQTU5-p3F2-9" value="" style="ellipse;whiteSpace=wrap;html=1;fillColor=#FF0080;" vertex="1" parent="1">
          <mxGeometry x="550" y="310" width="20" height="20" as="geometry" />
        </mxCell>
        <mxCell id="cWMiA6M3M2dQTU5-p3F2-18" value="" style="endArrow=none;html=1;rounded=0;startArrow=none;" edge="1" parent="1" source="cWMiA6M3M2dQTU5-p3F2-7" target="cWMiA6M3M2dQTU5-p3F2-9">
          <mxGeometry width="50" height="50" relative="1" as="geometry">
            <mxPoint x="330" y="320" as="sourcePoint" />
            <mxPoint x="560" y="320" as="targetPoint" />
          </mxGeometry>
        </mxCell>
        <mxCell id="cWMiA6M3M2dQTU5-p3F2-7" value="" style="ellipse;whiteSpace=wrap;html=1;fillColor=#FF0080;" vertex="1" parent="1">
          <mxGeometry x="540" y="310" width="20" height="20" as="geometry" />
        </mxCell>
        <mxCell id="cWMiA6M3M2dQTU5-p3F2-19" value="" style="endArrow=none;html=1;rounded=0;startArrow=none;" edge="1" parent="1" source="cWMiA6M3M2dQTU5-p3F2-6" target="cWMiA6M3M2dQTU5-p3F2-7">
          <mxGeometry width="50" height="50" relative="1" as="geometry">
            <mxPoint x="330" y="320" as="sourcePoint" />
            <mxPoint x="550" y="320" as="targetPoint" />
          </mxGeometry>
        </mxCell>
        <mxCell id="cWMiA6M3M2dQTU5-p3F2-6" value="" style="ellipse;whiteSpace=wrap;html=1;fillColor=#FF0080;" vertex="1" parent="1">
          <mxGeometry x="521" y="310" width="20" height="20" as="geometry" />
        </mxCell>
        <mxCell id="cWMiA6M3M2dQTU5-p3F2-20" value="" style="endArrow=none;html=1;rounded=0;startArrow=none;" edge="1" parent="1" source="cWMiA6M3M2dQTU5-p3F2-3" target="cWMiA6M3M2dQTU5-p3F2-6">
          <mxGeometry width="50" height="50" relative="1" as="geometry">
            <mxPoint x="330" y="320" as="sourcePoint" />
            <mxPoint x="540" y="320" as="targetPoint" />
          </mxGeometry>
        </mxCell>
        <mxCell id="cWMiA6M3M2dQTU5-p3F2-3" value="" style="ellipse;whiteSpace=wrap;html=1;fillColor=#FF0080;" vertex="1" parent="1">
          <mxGeometry x="510" y="310" width="20" height="20" as="geometry" />
        </mxCell>
        <mxCell id="cWMiA6M3M2dQTU5-p3F2-22" value="" style="endArrow=none;html=1;rounded=0;startArrow=none;" edge="1" parent="1" source="cWMiA6M3M2dQTU5-p3F2-4" target="cWMiA6M3M2dQTU5-p3F2-3">
          <mxGeometry width="50" height="50" relative="1" as="geometry">
            <mxPoint x="330" y="320" as="sourcePoint" />
            <mxPoint x="521" y="320" as="targetPoint" />
          </mxGeometry>
        </mxCell>
        <mxCell id="cWMiA6M3M2dQTU5-p3F2-8" value="" style="ellipse;whiteSpace=wrap;html=1;fillColor=#1ba1e2;fontColor=#ffffff;strokeColor=#006EAF;" vertex="1" parent="1">
          <mxGeometry x="405" y="310" width="20" height="20" as="geometry" />
        </mxCell>
        <mxCell id="cWMiA6M3M2dQTU5-p3F2-23" value="" style="endArrow=none;html=1;rounded=0;" edge="1" parent="1" target="cWMiA6M3M2dQTU5-p3F2-8">
          <mxGeometry width="50" height="50" relative="1" as="geometry">
            <mxPoint x="330" y="320" as="sourcePoint" />
            <mxPoint x="510" y="320" as="targetPoint" />
          </mxGeometry>
        </mxCell>
        <mxCell id="cWMiA6M3M2dQTU5-p3F2-5" value="" style="ellipse;whiteSpace=wrap;html=1;fillColor=#1ba1e2;fontColor=#ffffff;strokeColor=#006EAF;" vertex="1" parent="1">
          <mxGeometry x="430" y="310" width="20" height="20" as="geometry" />
        </mxCell>
        <mxCell id="cWMiA6M3M2dQTU5-p3F2-25" value="" style="endArrow=none;html=1;rounded=0;startArrow=none;fillColor=#1ba1e2;strokeColor=#006EAF;" edge="1" parent="1" source="cWMiA6M3M2dQTU5-p3F2-8" target="cWMiA6M3M2dQTU5-p3F2-5">
          <mxGeometry width="50" height="50" relative="1" as="geometry">
            <mxPoint x="425" y="320" as="sourcePoint" />
            <mxPoint x="510" y="320" as="targetPoint" />
          </mxGeometry>
        </mxCell>
        <mxCell id="cWMiA6M3M2dQTU5-p3F2-4" value="" style="ellipse;whiteSpace=wrap;html=1;fillColor=#1ba1e2;fontColor=#ffffff;strokeColor=#006EAF;" vertex="1" parent="1">
          <mxGeometry x="460" y="310" width="20" height="20" as="geometry" />
        </mxCell>
        <mxCell id="cWMiA6M3M2dQTU5-p3F2-27" value="" style="endArrow=none;html=1;rounded=0;startArrow=none;fillColor=#1ba1e2;strokeColor=#006EAF;" edge="1" parent="1" source="cWMiA6M3M2dQTU5-p3F2-5" target="cWMiA6M3M2dQTU5-p3F2-4">
          <mxGeometry width="50" height="50" relative="1" as="geometry">
            <mxPoint x="450" y="320" as="sourcePoint" />
            <mxPoint x="510" y="320" as="targetPoint" />
          </mxGeometry>
        </mxCell>
        <mxCell id="cWMiA6M3M2dQTU5-p3F2-31" value="" style="ellipse;whiteSpace=wrap;html=1;fillColor=#1ba1e2;fontColor=#ffffff;strokeColor=#006EAF;" vertex="1" parent="1">
          <mxGeometry x="712" y="310" width="20" height="20" as="geometry" />
        </mxCell>
        <mxCell id="cWMiA6M3M2dQTU5-p3F2-32" value="" style="ellipse;whiteSpace=wrap;html=1;fillColor=#1ba1e2;fontColor=#ffffff;strokeColor=#006EAF;" vertex="1" parent="1">
          <mxGeometry x="687" y="310" width="20" height="20" as="geometry" />
        </mxCell>
        <mxCell id="cWMiA6M3M2dQTU5-p3F2-34" value="" style="ellipse;whiteSpace=wrap;html=1;fillColor=#1ba1e2;fontColor=#ffffff;strokeColor=#006EAF;" vertex="1" parent="1">
          <mxGeometry x="640" y="310" width="20" height="20" as="geometry" />
        </mxCell>
        <mxCell id="cWMiA6M3M2dQTU5-p3F2-35" value="" style="endArrow=none;html=1;rounded=0;startArrow=none;" edge="1" parent="1" source="cWMiA6M3M2dQTU5-p3F2-11" target="cWMiA6M3M2dQTU5-p3F2-34">
          <mxGeometry width="50" height="50" relative="1" as="geometry">
            <mxPoint x="590" y="320" as="sourcePoint" />
            <mxPoint x="750" y="320" as="targetPoint" />
          </mxGeometry>
        </mxCell>
        <mxCell id="cWMiA6M3M2dQTU5-p3F2-33" value="" style="ellipse;whiteSpace=wrap;html=1;fillColor=#1ba1e2;fontColor=#ffffff;strokeColor=#006EAF;" vertex="1" parent="1">
          <mxGeometry x="660" y="310" width="20" height="20" as="geometry" />
        </mxCell>
        <mxCell id="cWMiA6M3M2dQTU5-p3F2-37" value="" style="endArrow=none;html=1;rounded=0;startArrow=none;fillColor=#1ba1e2;strokeColor=#006EAF;" edge="1" parent="1" source="cWMiA6M3M2dQTU5-p3F2-34" target="cWMiA6M3M2dQTU5-p3F2-33">
          <mxGeometry width="50" height="50" relative="1" as="geometry">
            <mxPoint x="660" y="320" as="sourcePoint" />
            <mxPoint x="750" y="320" as="targetPoint" />
          </mxGeometry>
        </mxCell>
        <mxCell id="cWMiA6M3M2dQTU5-p3F2-39" value="" style="ellipse;whiteSpace=wrap;html=1;fillColor=#1ba1e2;fontColor=#ffffff;strokeColor=#006EAF;" vertex="1" parent="1">
          <mxGeometry x="405" y="294" width="20" height="20" as="geometry" />
        </mxCell>
        <mxCell id="cWMiA6M3M2dQTU5-p3F2-40" value="" style="ellipse;whiteSpace=wrap;html=1;fillColor=#1ba1e2;fontColor=#ffffff;strokeColor=#006EAF;" vertex="1" parent="1">
          <mxGeometry x="430" y="284" width="20" height="20" as="geometry" />
        </mxCell>
        <mxCell id="cWMiA6M3M2dQTU5-p3F2-41" value="" style="ellipse;whiteSpace=wrap;html=1;fillColor=#1ba1e2;fontColor=#ffffff;strokeColor=#006EAF;" vertex="1" parent="1">
          <mxGeometry x="460" y="267" width="20" height="20" as="geometry" />
        </mxCell>
        <mxCell id="cWMiA6M3M2dQTU5-p3F2-42" value="" style="ellipse;whiteSpace=wrap;html=1;fillColor=#FF0080;" vertex="1" parent="1">
          <mxGeometry x="510" y="247" width="20" height="20" as="geometry" />
        </mxCell>
        <mxCell id="cWMiA6M3M2dQTU5-p3F2-43" value="" style="ellipse;whiteSpace=wrap;html=1;fillColor=#FF0080;" vertex="1" parent="1">
          <mxGeometry x="525" y="240" width="20" height="20" as="geometry" />
        </mxCell>
        <mxCell id="cWMiA6M3M2dQTU5-p3F2-44" value="" style="ellipse;whiteSpace=wrap;html=1;fillColor=#FF0080;" vertex="1" parent="1">
          <mxGeometry x="541" y="230" width="20" height="20" as="geometry" />
        </mxCell>
        <mxCell id="cWMiA6M3M2dQTU5-p3F2-45" value="" style="ellipse;whiteSpace=wrap;html=1;fillColor=#FF0080;" vertex="1" parent="1">
          <mxGeometry x="549" y="224" width="20" height="20" as="geometry" />
        </mxCell>
        <mxCell id="cWMiA6M3M2dQTU5-p3F2-46" value="" style="ellipse;whiteSpace=wrap;html=1;fillColor=#FF0080;" vertex="1" parent="1">
          <mxGeometry x="572" y="203" width="20" height="20" as="geometry" />
        </mxCell>
        <mxCell id="cWMiA6M3M2dQTU5-p3F2-47" value="" style="ellipse;whiteSpace=wrap;html=1;fillColor=#FF0080;" vertex="1" parent="1">
          <mxGeometry x="561" y="216" width="20" height="20" as="geometry" />
        </mxCell>
        <mxCell id="cWMiA6M3M2dQTU5-p3F2-50" value="" style="ellipse;whiteSpace=wrap;html=1;fillColor=#1ba1e2;fontColor=#ffffff;strokeColor=#006EAF;" vertex="1" parent="1">
          <mxGeometry x="632" y="139" width="20" height="20" as="geometry" />
        </mxCell>
        <mxCell id="cWMiA6M3M2dQTU5-p3F2-51" value="" style="endArrow=none;html=1;rounded=0;exitX=0;exitY=1;exitDx=0;exitDy=0;" edge="1" parent="1" source="cWMiA6M3M2dQTU5-p3F2-8">
          <mxGeometry width="50" height="50" relative="1" as="geometry">
            <mxPoint x="370" y="300" as="sourcePoint" />
            <mxPoint x="760" y="80" as="targetPoint" />
          </mxGeometry>
        </mxCell>
        <mxCell id="cWMiA6M3M2dQTU5-p3F2-52" value="" style="ellipse;whiteSpace=wrap;html=1;fillColor=#1ba1e2;fontColor=#ffffff;strokeColor=#006EAF;" vertex="1" parent="1">
          <mxGeometry x="700" y="39" width="20" height="20" as="geometry" />
        </mxCell>
        <mxCell id="cWMiA6M3M2dQTU5-p3F2-53" value="" style="ellipse;whiteSpace=wrap;html=1;fillColor=#1ba1e2;fontColor=#ffffff;strokeColor=#006EAF;" vertex="1" parent="1">
          <mxGeometry x="678" y="82" width="20" height="20" as="geometry" />
        </mxCell>
        <mxCell id="cWMiA6M3M2dQTU5-p3F2-54" value="" style="ellipse;whiteSpace=wrap;html=1;fillColor=#1ba1e2;fontColor=#ffffff;strokeColor=#006EAF;" vertex="1" parent="1">
          <mxGeometry x="649" y="122" width="20" height="20" as="geometry" />
        </mxCell>
        <mxCell id="cWMiA6M3M2dQTU5-p3F2-58" value="X" style="text;html=1;resizable=0;autosize=1;align=center;verticalAlign=middle;points=[];fillColor=none;strokeColor=none;rounded=0;" vertex="1" parent="1">
          <mxGeometry x="660" y="330" width="30" height="30" as="geometry" />
        </mxCell>
        <mxCell id="cWMiA6M3M2dQTU5-p3F2-59" value="X&lt;sup&gt;2&lt;/sup&gt;" style="text;html=1;resizable=0;autosize=1;align=center;verticalAlign=middle;points=[];fillColor=none;strokeColor=none;rounded=0;" vertex="1" parent="1">
          <mxGeometry x="335" y="59" width="40" height="30" as="geometry" />
        </mxCell>
        <mxCell id="cWMiA6M3M2dQTU5-p3F2-60" value="" style="endArrow=classic;html=1;rounded=0;exitX=0.444;exitY=-0.111;exitDx=0;exitDy=0;exitPerimeter=0;entryX=0.096;entryY=-0.002;entryDx=0;entryDy=0;entryPerimeter=0;" edge="1" parent="1">
          <mxGeometry width="50" height="50" relative="1" as="geometry">
            <mxPoint x="354.31999999999994" y="54.670000000000016" as="sourcePoint" />
            <mxPoint x="354.20000000000005" y="25.25999999999999" as="targetPoint" />
          </mxGeometry>
        </mxCell>
        <mxCell id="cWMiA6M3M2dQTU5-p3F2-61" value="" style="endArrow=classic;html=1;rounded=0;exitX=1.089;exitY=0.6;exitDx=0;exitDy=0;exitPerimeter=0;" edge="1" parent="1">
          <mxGeometry width="50" height="50" relative="1" as="geometry">
            <mxPoint x="691.6700000000001" y="345" as="sourcePoint" />
            <mxPoint x="729" y="345" as="targetPoint" />
          </mxGeometry>
        </mxCell>
        <mxCell id="cWMiA6M3M2dQTU5-p3F2-62" value="Support Vector Classifier" style="text;html=1;resizable=0;autosize=1;align=center;verticalAlign=middle;points=[];fillColor=none;strokeColor=none;rounded=0;" vertex="1" parent="1">
          <mxGeometry x="632" y="159" width="160" height="30" as="geometry" />
        </mxCell>
      </root>
    </mxGraphModel>
  </diagram>
</mxfile>
